<svg width="21" height="21" viewBox="0 0 21 21" fill="none" xmlns="http://www.w3.org/2000/svg">
<path fill-rule="evenodd" clip-rule="evenodd" d="M10.5 1.72083C5.813 1.72083 2 5.53383 2 10.2208C2 14.9078 5.813 18.7208 10.5 18.7208C15.187 18.7208 19 14.9078 19 10.2208C19 5.53383 15.187 1.72083 10.5 1.72083ZM10.5 20.2208C4.986 20.2208 0.5 15.7348 0.5 10.2208C0.5 4.70683 4.986 0.220825 10.5 0.220825C16.014 0.220825 20.5 4.70683 20.5 10.2208C20.5 15.7348 16.014 20.2208 10.5 20.2208Z" fill="black"/>
<path fill-rule="evenodd" clip-rule="evenodd" d="M10.5 13.0147C10.301 13.0147 10.109 12.9357 9.96899 12.7937L6.49799 9.3077C6.20499 9.0137 6.20699 8.5387 6.49999 8.2467C6.79399 7.9547 7.26899 7.9547 7.56099 8.2487L10.5 11.2027L13.44 8.2487C13.732 7.9547 14.207 7.9547 14.501 8.2467C14.794 8.5387 14.795 9.0137 14.503 9.3077L11.031 12.7937C10.891 12.9357 10.699 13.0147 10.5 13.0147Z" fill="black"/>
</svg>
